%TF.GenerationSoftware,KiCad,Pcbnew,9.0.7*%
%TF.CreationDate,2026-03-08T09:43:47+01:00*%
%TF.ProjectId,musicbox,6d757369-6362-46f7-982e-6b696361645f,rev?*%
%TF.SameCoordinates,Original*%
%TF.FileFunction,Soldermask,Bot*%
%TF.FilePolarity,Negative*%
%FSLAX46Y46*%
G04 Gerber Fmt 4.6, Leading zero omitted, Abs format (unit mm)*
G04 Created by KiCad (PCBNEW 9.0.7) date 2026-03-08 09:43:47*
%MOMM*%
%LPD*%
G01*
G04 APERTURE LIST*
G04 Aperture macros list*
%AMRoundRect*
0 Rectangle with rounded corners*
0 $1 Rounding radius*
0 $2 $3 $4 $5 $6 $7 $8 $9 X,Y pos of 4 corners*
0 Add a 4 corners polygon primitive as box body*
4,1,4,$2,$3,$4,$5,$6,$7,$8,$9,$2,$3,0*
0 Add four circle primitives for the rounded corners*
1,1,$1+$1,$2,$3*
1,1,$1+$1,$4,$5*
1,1,$1+$1,$6,$7*
1,1,$1+$1,$8,$9*
0 Add four rect primitives between the rounded corners*
20,1,$1+$1,$2,$3,$4,$5,0*
20,1,$1+$1,$4,$5,$6,$7,0*
20,1,$1+$1,$6,$7,$8,$9,0*
20,1,$1+$1,$8,$9,$2,$3,0*%
G04 Aperture macros list end*
%ADD10C,3.200000*%
%ADD11C,1.600000*%
%ADD12O,1.050000X1.500000*%
%ADD13R,1.050000X1.500000*%
%ADD14C,0.700000*%
%ADD15O,0.900000X2.400000*%
%ADD16O,0.900000X1.700000*%
%ADD17C,1.700000*%
%ADD18R,1.700000X1.700000*%
%ADD19RoundRect,0.250000X-0.350000X-0.625000X0.350000X-0.625000X0.350000X0.625000X-0.350000X0.625000X0*%
%ADD20O,1.200000X1.750000*%
G04 APERTURE END LIST*
D10*
%TO.C,REF\u002A\u002A*%
X119500000Y-52000000D03*
%TD*%
%TO.C,REF\u002A\u002A*%
X105000000Y-106000000D03*
%TD*%
%TO.C,REF\u002A\u002A*%
X88000000Y-53000000D03*
%TD*%
D11*
%TO.C,R7*%
X98340000Y-89500000D03*
X108500000Y-89500000D03*
%TD*%
%TO.C,R1*%
X108500000Y-65500000D03*
X98340000Y-65500000D03*
%TD*%
D12*
%TO.C,Q1*%
X99000000Y-53000000D03*
X97730000Y-53000000D03*
D13*
X96460000Y-53000000D03*
%TD*%
D12*
%TO.C,Q2*%
X105000000Y-53000000D03*
X103730000Y-53000000D03*
D13*
X102460000Y-53000000D03*
%TD*%
D12*
%TO.C,Q3*%
X111000000Y-53000000D03*
X109730000Y-53000000D03*
D13*
X108460000Y-53000000D03*
%TD*%
D14*
%TO.C,J1*%
X90025000Y-104650000D03*
X90875000Y-104650000D03*
X91725000Y-104650000D03*
X92575000Y-104650000D03*
X93425000Y-104650000D03*
X94275000Y-104650000D03*
X95125000Y-104650000D03*
X95975000Y-104650000D03*
X95975000Y-106000000D03*
X95125000Y-106000000D03*
X94275000Y-106000000D03*
X93425000Y-106000000D03*
X92575000Y-106000000D03*
X91725000Y-106000000D03*
X90875000Y-106000000D03*
X90025000Y-106000000D03*
D15*
X88675000Y-105630000D03*
D16*
X88675000Y-109010000D03*
D15*
X97325000Y-105630000D03*
D16*
X97325000Y-109010000D03*
%TD*%
D17*
%TO.C,J10*%
X120000000Y-73000000D03*
X120000000Y-70460000D03*
X120000000Y-67920000D03*
X120000000Y-65380000D03*
X120000000Y-62840000D03*
X120000000Y-60300000D03*
D18*
X120000000Y-57760000D03*
%TD*%
D17*
%TO.C,J9*%
X114685000Y-97080000D03*
X114685000Y-94540000D03*
X114685000Y-92000000D03*
X114685000Y-89460000D03*
X114685000Y-86920000D03*
X114685000Y-84380000D03*
X114685000Y-81840000D03*
X114685000Y-79300000D03*
X114685000Y-76760000D03*
X114685000Y-74220000D03*
X114685000Y-71680000D03*
X114685000Y-69140000D03*
X114685000Y-66600000D03*
X114685000Y-64060000D03*
X114685000Y-61520000D03*
D18*
X114685000Y-58980000D03*
%TD*%
D17*
%TO.C,J8*%
X91825000Y-97080000D03*
X91825000Y-94540000D03*
X91825000Y-92000000D03*
X91825000Y-89460000D03*
X91825000Y-86920000D03*
X91825000Y-84380000D03*
X91825000Y-81840000D03*
X91825000Y-79300000D03*
X91825000Y-76760000D03*
X91825000Y-74220000D03*
X91825000Y-71680000D03*
X91825000Y-69140000D03*
X91825000Y-66600000D03*
X91825000Y-64060000D03*
X91825000Y-61520000D03*
D18*
X91825000Y-58980000D03*
%TD*%
D11*
%TO.C,R6*%
X108500000Y-85500000D03*
X98340000Y-85500000D03*
%TD*%
%TO.C,R5*%
X108500000Y-81500000D03*
X98340000Y-81500000D03*
%TD*%
%TO.C,R4*%
X108500000Y-77500000D03*
X98340000Y-77500000D03*
%TD*%
%TO.C,R3*%
X108500000Y-73500000D03*
X98340000Y-73500000D03*
%TD*%
%TO.C,R2*%
X98340000Y-69500000D03*
X108500000Y-69500000D03*
%TD*%
D18*
%TO.C,J7*%
X86825000Y-78380000D03*
D17*
X86825000Y-80920000D03*
X86825000Y-83460000D03*
X86825000Y-86000000D03*
%TD*%
D18*
%TO.C,J4*%
X86825000Y-59840000D03*
D17*
X86825000Y-62380000D03*
X86825000Y-64920000D03*
X86825000Y-67460000D03*
X86825000Y-70000000D03*
%TD*%
D18*
%TO.C,J3*%
X120000000Y-81460000D03*
D17*
X120000000Y-84000000D03*
X120000000Y-86540000D03*
X120000000Y-89080000D03*
X120000000Y-91620000D03*
X120000000Y-94160000D03*
%TD*%
D19*
%TO.C,J2*%
X114825000Y-103500000D03*
D20*
X116825000Y-103500000D03*
%TD*%
M02*
