M48
; DRILL file {KiCad 9.0.7} date 2026-03-08T09:44:27+0100
; FORMAT={-:-/ absolute / metric / decimal}
; #@! TF.CreationDate,2026-03-08T09:44:27+01:00
; #@! TF.GenerationSoftware,Kicad,Pcbnew,9.0.7
; #@! TF.FileFunction,Plated,1,2,PTH
FMAT,2
METRIC
; #@! TA.AperFunction,Plated,PTH,ViaDrill
T1C0.400
; #@! TA.AperFunction,Plated,PTH,ComponentDrill
T2C0.400
; #@! TA.AperFunction,Plated,PTH,ComponentDrill
T3C0.600
; #@! TA.AperFunction,Plated,PTH,ComponentDrill
T4C0.750
; #@! TA.AperFunction,Plated,PTH,ComponentDrill
T5C0.800
; #@! TA.AperFunction,Plated,PTH,ComponentDrill
T6C1.000
%
G90
G05
T1
X93.233Y-84.815
X97.448Y-71.343
X107.135Y-78.157
X116.721Y-85.478
X118.841Y-74.244
T2
X90.025Y-104.65
X90.025Y-106.0
X90.875Y-104.65
X90.875Y-106.0
X91.725Y-104.65
X91.725Y-106.0
X92.575Y-104.65
X92.575Y-106.0
X93.425Y-104.65
X93.425Y-106.0
X94.275Y-104.65
X94.275Y-106.0
X95.125Y-104.65
X95.125Y-106.0
X95.975Y-104.65
X95.975Y-106.0
T4
X96.46Y-53.0
X97.73Y-53.0
X99.0Y-53.0
X102.46Y-53.0
X103.73Y-53.0
X105.0Y-53.0
X108.46Y-53.0
X109.73Y-53.0
X111.0Y-53.0
X114.825Y-103.5
X116.825Y-103.5
T5
X98.34Y-65.5
X98.34Y-69.5
X98.34Y-73.5
X98.34Y-77.5
X98.34Y-81.5
X98.34Y-85.5
X98.34Y-89.5
X108.5Y-65.5
X108.5Y-69.5
X108.5Y-73.5
X108.5Y-77.5
X108.5Y-81.5
X108.5Y-85.5
X108.5Y-89.5
T6
X86.825Y-59.84
X86.825Y-62.38
X86.825Y-64.92
X86.825Y-67.46
X86.825Y-70.0
X86.825Y-78.38
X86.825Y-80.92
X86.825Y-83.46
X86.825Y-86.0
X91.825Y-58.98
X91.825Y-61.52
X91.825Y-64.06
X91.825Y-66.6
X91.825Y-69.14
X91.825Y-71.68
X91.825Y-74.22
X91.825Y-76.76
X91.825Y-79.3
X91.825Y-81.84
X91.825Y-84.38
X91.825Y-86.92
X91.825Y-89.46
X91.825Y-92.0
X91.825Y-94.54
X91.825Y-97.08
X114.685Y-58.98
X114.685Y-61.52
X114.685Y-64.06
X114.685Y-66.6
X114.685Y-69.14
X114.685Y-71.68
X114.685Y-74.22
X114.685Y-76.76
X114.685Y-79.3
X114.685Y-81.84
X114.685Y-84.38
X114.685Y-86.92
X114.685Y-89.46
X114.685Y-92.0
X114.685Y-94.54
X114.685Y-97.08
X120.0Y-57.76
X120.0Y-60.3
X120.0Y-62.84
X120.0Y-65.38
X120.0Y-67.92
X120.0Y-70.46
X120.0Y-73.0
X120.0Y-81.46
X120.0Y-84.0
X120.0Y-86.54
X120.0Y-89.08
X120.0Y-91.62
X120.0Y-94.16
T3
G00X88.675Y-104.88
M15
G01X88.675Y-106.38
M16
G05
G00X88.675Y-108.61
M15
G01X88.675Y-109.41
M16
G05
G00X97.325Y-104.88
M15
G01X97.325Y-106.38
M16
G05
G00X97.325Y-108.61
M15
G01X97.325Y-109.41
M16
G05
M30
