%TF.GenerationSoftware,KiCad,Pcbnew,9.0.7*%
%TF.CreationDate,2026-03-08T09:43:46+01:00*%
%TF.ProjectId,musicbox,6d757369-6362-46f7-982e-6b696361645f,rev?*%
%TF.SameCoordinates,Original*%
%TF.FileFunction,Copper,L1,Top*%
%TF.FilePolarity,Positive*%
%FSLAX46Y46*%
G04 Gerber Fmt 4.6, Leading zero omitted, Abs format (unit mm)*
G04 Created by KiCad (PCBNEW 9.0.7) date 2026-03-08 09:43:46*
%MOMM*%
%LPD*%
G01*
G04 APERTURE LIST*
G04 Aperture macros list*
%AMRoundRect*
0 Rectangle with rounded corners*
0 $1 Rounding radius*
0 $2 $3 $4 $5 $6 $7 $8 $9 X,Y pos of 4 corners*
0 Add a 4 corners polygon primitive as box body*
4,1,4,$2,$3,$4,$5,$6,$7,$8,$9,$2,$3,0*
0 Add four circle primitives for the rounded corners*
1,1,$1+$1,$2,$3*
1,1,$1+$1,$4,$5*
1,1,$1+$1,$6,$7*
1,1,$1+$1,$8,$9*
0 Add four rect primitives between the rounded corners*
20,1,$1+$1,$2,$3,$4,$5,0*
20,1,$1+$1,$4,$5,$6,$7,0*
20,1,$1+$1,$6,$7,$8,$9,0*
20,1,$1+$1,$8,$9,$2,$3,0*%
G04 Aperture macros list end*
%TA.AperFunction,ComponentPad*%
%ADD10C,1.600000*%
%TD*%
%TA.AperFunction,ComponentPad*%
%ADD11O,1.050000X1.500000*%
%TD*%
%TA.AperFunction,ComponentPad*%
%ADD12R,1.050000X1.500000*%
%TD*%
%TA.AperFunction,ComponentPad*%
%ADD13C,0.700000*%
%TD*%
%TA.AperFunction,ComponentPad*%
%ADD14O,0.900000X2.400000*%
%TD*%
%TA.AperFunction,ComponentPad*%
%ADD15O,0.900000X1.700000*%
%TD*%
%TA.AperFunction,ComponentPad*%
%ADD16C,1.700000*%
%TD*%
%TA.AperFunction,ComponentPad*%
%ADD17R,1.700000X1.700000*%
%TD*%
%TA.AperFunction,ComponentPad*%
%ADD18RoundRect,0.250000X-0.350000X-0.625000X0.350000X-0.625000X0.350000X0.625000X-0.350000X0.625000X0*%
%TD*%
%TA.AperFunction,ComponentPad*%
%ADD19O,1.200000X1.750000*%
%TD*%
%TA.AperFunction,ViaPad*%
%ADD20C,0.800000*%
%TD*%
%TA.AperFunction,Conductor*%
%ADD21C,0.200000*%
%TD*%
G04 APERTURE END LIST*
D10*
%TO.P,R7,2*%
%TO.N,GND*%
X98340000Y-89500000D03*
%TO.P,R7,1*%
%TO.N,/JBL_STATUS*%
X108500000Y-89500000D03*
%TD*%
%TO.P,R1,2*%
%TO.N,GND*%
X108500000Y-65500000D03*
%TO.P,R1,1*%
%TO.N,Net-(J1-CC1)*%
X98340000Y-65500000D03*
%TD*%
D11*
%TO.P,Q1,3,E*%
%TO.N,Net-(J10-Pin_6)*%
X99000000Y-53000000D03*
%TO.P,Q1,2,B*%
%TO.N,Net-(Q1-B)*%
X97730000Y-53000000D03*
D12*
%TO.P,Q1,1,C*%
%TO.N,Net-(J10-Pin_5)*%
X96460000Y-53000000D03*
%TD*%
D11*
%TO.P,Q2,3,E*%
%TO.N,Net-(J10-Pin_2)*%
X105000000Y-53000000D03*
%TO.P,Q2,2,B*%
%TO.N,Net-(Q2-B)*%
X103730000Y-53000000D03*
D12*
%TO.P,Q2,1,C*%
%TO.N,Net-(J10-Pin_1)*%
X102460000Y-53000000D03*
%TD*%
D11*
%TO.P,Q3,3,E*%
%TO.N,Net-(J10-Pin_4)*%
X111000000Y-53000000D03*
%TO.P,Q3,2,B*%
%TO.N,Net-(Q3-B)*%
X109730000Y-53000000D03*
D12*
%TO.P,Q3,1,C*%
%TO.N,Net-(J10-Pin_3)*%
X108460000Y-53000000D03*
%TD*%
D13*
%TO.P,J1,A1,GND*%
%TO.N,GND*%
X90025000Y-104650000D03*
%TO.P,J1,A4,VBUS*%
%TO.N,VBUS*%
X90875000Y-104650000D03*
%TO.P,J1,A5,CC1*%
%TO.N,Net-(J1-CC1)*%
X91725000Y-104650000D03*
%TO.P,J1,A6,D+*%
%TO.N,unconnected-(J1-D+-PadA6)*%
X92575000Y-104650000D03*
%TO.P,J1,A7,D-*%
%TO.N,unconnected-(J1-D--PadA7)*%
X93425000Y-104650000D03*
%TO.P,J1,A8*%
%TO.N,N/C*%
X94275000Y-104650000D03*
%TO.P,J1,A9,VBUS*%
%TO.N,VBUS*%
X95125000Y-104650000D03*
%TO.P,J1,A12,GND*%
%TO.N,GND*%
X95975000Y-104650000D03*
%TO.P,J1,B1,GND*%
X95975000Y-106000000D03*
%TO.P,J1,B4,VBUS*%
%TO.N,VBUS*%
X95125000Y-106000000D03*
%TO.P,J1,B5,CC2*%
%TO.N,Net-(J1-CC2)*%
X94275000Y-106000000D03*
%TO.P,J1,B6,D+*%
%TO.N,unconnected-(J1-D+-PadB6)*%
X93425000Y-106000000D03*
%TO.P,J1,B7,D-*%
%TO.N,unconnected-(J1-D--PadB7)*%
X92575000Y-106000000D03*
%TO.P,J1,B8*%
%TO.N,N/C*%
X91725000Y-106000000D03*
%TO.P,J1,B9,VBUS*%
%TO.N,VBUS*%
X90875000Y-106000000D03*
%TO.P,J1,B12,GND*%
%TO.N,GND*%
X90025000Y-106000000D03*
D14*
%TO.P,J1,S1,SHIELD*%
X88675000Y-105630000D03*
D15*
X88675000Y-109010000D03*
D14*
X97325000Y-105630000D03*
D15*
X97325000Y-109010000D03*
%TD*%
D16*
%TO.P,J10,7,Pin_7*%
%TO.N,Net-(J10-Pin_7)*%
X120000000Y-73000000D03*
%TO.P,J10,6,Pin_6*%
%TO.N,Net-(J10-Pin_6)*%
X120000000Y-70460000D03*
%TO.P,J10,5,Pin_5*%
%TO.N,Net-(J10-Pin_5)*%
X120000000Y-67920000D03*
%TO.P,J10,4,Pin_4*%
%TO.N,Net-(J10-Pin_4)*%
X120000000Y-65380000D03*
%TO.P,J10,3,Pin_3*%
%TO.N,Net-(J10-Pin_3)*%
X120000000Y-62840000D03*
%TO.P,J10,2,Pin_2*%
%TO.N,Net-(J10-Pin_2)*%
X120000000Y-60300000D03*
D17*
%TO.P,J10,1,Pin_1*%
%TO.N,Net-(J10-Pin_1)*%
X120000000Y-57760000D03*
%TD*%
D16*
%TO.P,J9,16,Pin_16*%
%TO.N,GND*%
X114685000Y-97080000D03*
%TO.P,J9,15,Pin_15*%
%TO.N,/JBL_VOL-*%
X114685000Y-94540000D03*
%TO.P,J9,14,Pin_14*%
%TO.N,unconnected-(J9-Pin_14-Pad14)*%
X114685000Y-92000000D03*
%TO.P,J9,13,Pin_13*%
%TO.N,unconnected-(J9-Pin_13-Pad13)*%
X114685000Y-89460000D03*
%TO.P,J9,12,Pin_12*%
%TO.N,unconnected-(J9-Pin_12-Pad12)*%
X114685000Y-86920000D03*
%TO.P,J9,11,Pin_11*%
%TO.N,unconnected-(J9-Pin_11-Pad11)*%
X114685000Y-84380000D03*
%TO.P,J9,10,Pin_10*%
%TO.N,unconnected-(J9-Pin_10-Pad10)*%
X114685000Y-81840000D03*
%TO.P,J9,9,Pin_9*%
%TO.N,/SPI_SS*%
X114685000Y-79300000D03*
%TO.P,J9,8,Pin_8*%
%TO.N,unconnected-(J9-Pin_8-Pad8)*%
X114685000Y-76760000D03*
%TO.P,J9,7,Pin_7*%
%TO.N,unconnected-(J9-Pin_7-Pad7)*%
X114685000Y-74220000D03*
%TO.P,J9,6,Pin_6*%
%TO.N,/SPI_MISO*%
X114685000Y-71680000D03*
%TO.P,J9,5,Pin_5*%
%TO.N,unconnected-(J9-Pin_5-Pad5)*%
X114685000Y-69140000D03*
%TO.P,J9,4,Pin_4*%
%TO.N,unconnected-(J9-Pin_4-Pad4)*%
X114685000Y-66600000D03*
%TO.P,J9,3,Pin_3*%
%TO.N,/SPI_SCK*%
X114685000Y-64060000D03*
%TO.P,J9,2,Pin_2*%
%TO.N,unconnected-(J9-Pin_2-Pad2)*%
X114685000Y-61520000D03*
D17*
%TO.P,J9,1,Pin_1*%
%TO.N,GND*%
X114685000Y-58980000D03*
%TD*%
D16*
%TO.P,J8,16,Pin_16*%
%TO.N,Net-(J2-Pin_1)*%
X91825000Y-97080000D03*
%TO.P,J8,15,Pin_15*%
%TO.N,VBUS*%
X91825000Y-94540000D03*
%TO.P,J8,14,Pin_14*%
%TO.N,unconnected-(J8-Pin_14-Pad14)*%
X91825000Y-92000000D03*
%TO.P,J8,13,Pin_13*%
%TO.N,/JBL_PWR*%
X91825000Y-89460000D03*
%TO.P,J8,12,Pin_12*%
%TO.N,/SPI_MOSI*%
X91825000Y-86920000D03*
%TO.P,J8,11,Pin_11*%
%TO.N,/JBL_VOL+*%
X91825000Y-84380000D03*
%TO.P,J8,10,Pin_10*%
%TO.N,/I2S_DIN*%
X91825000Y-81840000D03*
%TO.P,J8,9,Pin_9*%
%TO.N,/I2S_BCK*%
X91825000Y-79300000D03*
%TO.P,J8,8,Pin_8*%
%TO.N,/I2S_LRCK*%
X91825000Y-76760000D03*
%TO.P,J8,7,Pin_7*%
%TO.N,/BTN_B (VOL-)*%
X91825000Y-74220000D03*
%TO.P,J8,6,Pin_6*%
%TO.N,/BTN_A (VOL+)*%
X91825000Y-71680000D03*
%TO.P,J8,5,Pin_5*%
%TO.N,/JBL_STATUS*%
X91825000Y-69140000D03*
%TO.P,J8,4,Pin_4*%
%TO.N,unconnected-(J8-Pin_4-Pad4)*%
X91825000Y-66600000D03*
%TO.P,J8,3,Pin_3*%
%TO.N,unconnected-(J8-Pin_3-Pad3)*%
X91825000Y-64060000D03*
%TO.P,J8,2,Pin_2*%
%TO.N,unconnected-(J8-Pin_2-Pad2)*%
X91825000Y-61520000D03*
D17*
%TO.P,J8,1,Pin_1*%
%TO.N,+3V3*%
X91825000Y-58980000D03*
%TD*%
D10*
%TO.P,R6,1*%
%TO.N,Net-(J10-Pin_7)*%
X108500000Y-85500000D03*
%TO.P,R6,2*%
%TO.N,/JBL_STATUS*%
X98340000Y-85500000D03*
%TD*%
%TO.P,R5,1*%
%TO.N,Net-(Q1-B)*%
X108500000Y-81500000D03*
%TO.P,R5,2*%
%TO.N,/JBL_PWR*%
X98340000Y-81500000D03*
%TD*%
%TO.P,R4,1*%
%TO.N,Net-(Q2-B)*%
X108500000Y-77500000D03*
%TO.P,R4,2*%
%TO.N,/JBL_VOL-*%
X98340000Y-77500000D03*
%TD*%
%TO.P,R3,1*%
%TO.N,Net-(Q3-B)*%
X108500000Y-73500000D03*
%TO.P,R3,2*%
%TO.N,/JBL_VOL+*%
X98340000Y-73500000D03*
%TD*%
%TO.P,R2,1*%
%TO.N,Net-(J1-CC2)*%
X98340000Y-69500000D03*
%TO.P,R2,2*%
%TO.N,GND*%
X108500000Y-69500000D03*
%TD*%
D17*
%TO.P,J7,1,Pin_1*%
%TO.N,/BTN_A (VOL+)*%
X86825000Y-78380000D03*
D16*
%TO.P,J7,2,Pin_2*%
%TO.N,GND*%
X86825000Y-80920000D03*
%TO.P,J7,3,Pin_3*%
%TO.N,/BTN_B (VOL-)*%
X86825000Y-83460000D03*
%TO.P,J7,4,Pin_4*%
%TO.N,GND*%
X86825000Y-86000000D03*
%TD*%
D17*
%TO.P,J4,1,Pin_1*%
%TO.N,VBUS*%
X86825000Y-59840000D03*
D16*
%TO.P,J4,2,Pin_2*%
%TO.N,GND*%
X86825000Y-62380000D03*
%TO.P,J4,3,Pin_3*%
%TO.N,/I2S_BCK*%
X86825000Y-64920000D03*
%TO.P,J4,4,Pin_4*%
%TO.N,/I2S_LRCK*%
X86825000Y-67460000D03*
%TO.P,J4,5,Pin_5*%
%TO.N,/I2S_DIN*%
X86825000Y-70000000D03*
%TD*%
D17*
%TO.P,J3,1,Pin_1*%
%TO.N,+3V3*%
X120000000Y-81460000D03*
D16*
%TO.P,J3,2,Pin_2*%
%TO.N,GND*%
X120000000Y-84000000D03*
%TO.P,J3,3,Pin_3*%
%TO.N,/SPI_SCK*%
X120000000Y-86540000D03*
%TO.P,J3,4,Pin_4*%
%TO.N,/SPI_MISO*%
X120000000Y-89080000D03*
%TO.P,J3,5,Pin_5*%
%TO.N,/SPI_MOSI*%
X120000000Y-91620000D03*
%TO.P,J3,6,Pin_6*%
%TO.N,/SPI_SS*%
X120000000Y-94160000D03*
%TD*%
D18*
%TO.P,J2,1,Pin_1*%
%TO.N,Net-(J2-Pin_1)*%
X114825000Y-103500000D03*
D19*
%TO.P,J2,2,Pin_2*%
%TO.N,GND*%
X116825000Y-103500000D03*
%TD*%
D20*
%TO.N,/JBL_STATUS*%
X97448300Y-71343000D03*
%TO.N,/JBL_PWR*%
X93233400Y-84815200D03*
%TO.N,/JBL_VOL-*%
X107135000Y-78157100D03*
%TO.N,+3V3*%
X118841100Y-74244300D03*
%TO.N,GND*%
X116721000Y-85478500D03*
%TD*%
D21*
%TO.N,Net-(J1-CC2)*%
X98340000Y-69500000D02*
X96500000Y-71340000D01*
X96500000Y-71340000D02*
X96500000Y-82229900D01*
X96500000Y-82229900D02*
X97072000Y-82801900D01*
%TO.N,Net-(J10-Pin_4)*%
X118610200Y-63990200D02*
X120000000Y-65380000D01*
X118610200Y-59783500D02*
X118610200Y-63990200D01*
X111826700Y-53000000D02*
X118610200Y-59783500D01*
X111000000Y-53000000D02*
X111826700Y-53000000D01*
%TO.N,/JBL_STATUS*%
X98340000Y-83301700D02*
X98340000Y-85500000D01*
X97238300Y-82200000D02*
X98340000Y-83301700D01*
X97238300Y-71553000D02*
X97238300Y-82200000D01*
X97448300Y-71343000D02*
X97238300Y-71553000D01*
%TO.N,/JBL_PWR*%
X93233400Y-88051600D02*
X91825000Y-89460000D01*
X93233400Y-84815200D02*
X93233400Y-88051600D01*
%TO.N,/JBL_VOL-*%
X110413000Y-81435100D02*
X107135000Y-78157100D01*
X110413000Y-90268000D02*
X110413000Y-81435100D01*
X114685000Y-94540000D02*
X110413000Y-90268000D01*
X107135000Y-78157100D02*
X110413000Y-81435100D01*
X110413000Y-81435100D02*
X107135000Y-78157100D01*
%TO.N,Net-(Q3-B)*%
X107350900Y-72350900D02*
X108500000Y-73500000D01*
X107350900Y-65091100D02*
X107350900Y-72350900D01*
X109730000Y-62712000D02*
X107350900Y-65091100D01*
X109730000Y-53000000D02*
X109730000Y-62712000D01*
%TO.N,Net-(Q2-B)*%
X103730000Y-72730000D02*
X103730000Y-53000000D01*
X108500000Y-77500000D02*
X103730000Y-72730000D01*
%TO.N,Net-(Q1-B)*%
X97730000Y-55025200D02*
X97730000Y-53000000D01*
X101857500Y-59152700D02*
X97730000Y-55025200D01*
X101857500Y-74857500D02*
X101857500Y-59152700D01*
X108500000Y-81500000D02*
X101857500Y-74857500D01*
%TO.N,/I2S_DIN*%
X89213500Y-72388500D02*
X86825000Y-70000000D01*
X89213500Y-79228500D02*
X89213500Y-72388500D01*
X91825000Y-81840000D02*
X89213500Y-79228500D01*
%TO.N,/I2S_BCK*%
X85635100Y-66109900D02*
X86825000Y-64920000D01*
X85635100Y-67955700D02*
X85635100Y-66109900D01*
X86409400Y-68730000D02*
X85635100Y-67955700D01*
X87183800Y-68730000D02*
X86409400Y-68730000D01*
X90035000Y-71581200D02*
X87183800Y-68730000D01*
X90035000Y-77510000D02*
X90035000Y-71581200D01*
X91825000Y-79300000D02*
X90035000Y-77510000D01*
%TO.N,/I2S_LRCK*%
X90436700Y-71071700D02*
X86825000Y-67460000D01*
X90436700Y-75371700D02*
X90436700Y-71071700D01*
X91825000Y-76760000D02*
X90436700Y-75371700D01*
%TO.N,/SPI_SCK*%
X120000000Y-85641500D02*
X120000000Y-86540000D01*
X118810300Y-84451800D02*
X120000000Y-85641500D01*
X118810300Y-75722600D02*
X118810300Y-84451800D01*
X118173900Y-75086200D02*
X118810300Y-75722600D01*
X118173900Y-67548900D02*
X118173900Y-75086200D01*
X114685000Y-64060000D02*
X118173900Y-67548900D01*
%TO.N,+3V3*%
X120000000Y-75403200D02*
X120000000Y-81460000D01*
X118841100Y-74244300D02*
X120000000Y-75403200D01*
X118841100Y-74244300D02*
X119394400Y-74797600D01*
X119394400Y-74797600D02*
X118841100Y-74244300D01*
X118841100Y-74244300D02*
X118842300Y-74243100D01*
X118842300Y-74243100D02*
X118841100Y-74244300D01*
%TO.N,/SPI_MISO*%
X118408600Y-84618100D02*
X118644000Y-84853500D01*
X118408600Y-75971500D02*
X118408600Y-84618100D01*
X114685000Y-72247900D02*
X118408600Y-75971500D01*
X114685000Y-71680000D02*
X114685000Y-72247900D01*
X118644000Y-84853500D02*
X118808800Y-85018300D01*
X118644000Y-84853500D02*
X118808800Y-85018300D01*
X118808800Y-87888800D02*
X120000000Y-89080000D01*
X118808800Y-85018300D02*
X118808800Y-87888800D01*
%TO.N,/SPI_SS*%
X118006900Y-92166900D02*
X120000000Y-94160000D01*
X118006900Y-82621900D02*
X118006900Y-92166900D01*
X114685000Y-79300000D02*
X118006900Y-82621900D01*
%TO.N,Net-(J1-CC2)*%
X94275000Y-106083500D02*
X94275000Y-106000000D01*
X95369500Y-107178000D02*
X94275000Y-106083500D01*
X97617300Y-107178000D02*
X95369500Y-107178000D01*
X98083400Y-106711900D02*
X97617300Y-107178000D01*
X98083400Y-104538300D02*
X98083400Y-106711900D01*
X97238300Y-103693200D02*
X98083400Y-104538300D01*
X97238300Y-82968200D02*
X97238300Y-103693200D01*
X97072000Y-82801900D02*
X97238300Y-82968200D01*
X97072000Y-82801900D02*
X97238300Y-82968200D01*
%TO.N,Net-(J1-CC1)*%
X91725000Y-101446600D02*
X91725000Y-104650000D01*
X93891800Y-99279800D02*
X91725000Y-101446600D01*
X93891800Y-69948200D02*
X93891800Y-99279800D01*
X98340000Y-65500000D02*
X93891800Y-69948200D01*
%TO.N,VBUS*%
X95125000Y-106000000D02*
X95125000Y-104650000D01*
X90875000Y-106000000D02*
X90875000Y-104650000D01*
X90875000Y-100968300D02*
X90875000Y-104650000D01*
X90625000Y-100718300D02*
X90875000Y-100968300D01*
X90625000Y-95740000D02*
X90625000Y-100718300D01*
X91825000Y-94540000D02*
X90625000Y-95740000D01*
X86825000Y-59840000D02*
X86825000Y-60991700D01*
X85228300Y-87943300D02*
X91825000Y-94540000D01*
X85228300Y-69459200D02*
X85228300Y-87943300D01*
X85067100Y-69298000D02*
X85228300Y-69459200D01*
X85067100Y-69298000D02*
X85228300Y-69459200D01*
X84831700Y-69062600D02*
X85067100Y-69298000D01*
X84831700Y-62697100D02*
X84831700Y-69062600D01*
X86537100Y-60991700D02*
X84831700Y-62697100D01*
X86825000Y-60991700D02*
X86537100Y-60991700D01*
%TO.N,GND*%
X113868300Y-60131700D02*
X108500000Y-65500000D01*
X114685000Y-60131700D02*
X113868300Y-60131700D01*
X114685000Y-58980000D02*
X114685000Y-60131700D01*
X108500000Y-69500000D02*
X108500000Y-65500000D01*
X90025000Y-104650000D02*
X90025000Y-106000000D01*
X88675000Y-106058400D02*
X88733400Y-106000000D01*
X88675000Y-109010000D02*
X88675000Y-106058400D01*
X88733400Y-106000000D02*
X90025000Y-106000000D01*
X88733400Y-105688400D02*
X88733400Y-106000000D01*
X88675000Y-105630000D02*
X88733400Y-105688400D01*
X85635100Y-84810100D02*
X85635100Y-80920000D01*
X86825000Y-86000000D02*
X85635100Y-84810100D01*
X85635100Y-80920000D02*
X86825000Y-80920000D01*
X97558700Y-107858300D02*
X97325000Y-107858300D01*
X98485100Y-106931900D02*
X97558700Y-107858300D01*
X98485100Y-89645100D02*
X98485100Y-106931900D01*
X98340000Y-89500000D02*
X98485100Y-89645100D01*
X97325000Y-109010000D02*
X97325000Y-107858300D01*
X95975000Y-104650000D02*
X95975000Y-106000000D01*
X116721000Y-97080000D02*
X114685000Y-97080000D01*
X116825000Y-97184000D02*
X116721000Y-97080000D01*
X116825000Y-103500000D02*
X116825000Y-97184000D01*
X116721000Y-97080000D02*
X116721000Y-85478500D01*
X116721000Y-85478500D02*
X116721000Y-84000000D01*
X116721000Y-84000000D02*
X116721000Y-85478500D01*
X85635100Y-69297900D02*
X85635100Y-80920000D01*
X85233400Y-68896200D02*
X85635100Y-69297900D01*
X85233400Y-63971600D02*
X85233400Y-68896200D01*
X86825000Y-62380000D02*
X85233400Y-63971600D01*
%TD*%
M02*
