%TF.GenerationSoftware,KiCad,Pcbnew,9.0.7*%
%TF.CreationDate,2026-04-13T16:05:15+02:00*%
%TF.ProjectId,zbox,6d757369-6362-46f7-982e-6b696361645f,rev?*%
%TF.SameCoordinates,Original*%
%TF.FileFunction,Soldermask,Bot*%
%TF.FilePolarity,Negative*%
%FSLAX46Y46*%
G04 Gerber Fmt 4.6, Leading zero omitted, Abs format (unit mm)*
G04 Created by KiCad (PCBNEW 9.0.7) date 2026-04-13 16:05:15*
%MOMM*%
%LPD*%
G01*
G04 APERTURE LIST*
%ADD10C,3.200000*%
%ADD11R,1.050000X1.500000*%
%ADD12O,1.050000X1.500000*%
%ADD13C,1.600000*%
%ADD14O,1.700000X0.900000*%
%ADD15O,2.400000X0.900000*%
%ADD16C,0.700000*%
%ADD17R,1.700000X1.700000*%
%ADD18C,1.700000*%
G04 APERTURE END LIST*
D10*
%TO.C,REF\u002A\u002A*%
X141500000Y-108000000D03*
%TD*%
%TO.C,REF\u002A3*%
X93500000Y-107000000D03*
%TD*%
%TO.C,REF\u002A2*%
X141500000Y-73000000D03*
%TD*%
D11*
%TO.C,Q2*%
X135500000Y-116000000D03*
D12*
X136770000Y-116000000D03*
X138040000Y-116000000D03*
%TD*%
D13*
%TO.C,R6*%
X116000000Y-91000000D03*
X105840000Y-91000000D03*
%TD*%
D14*
%TO.C,J1*%
X88732300Y-94064800D03*
D15*
X92112300Y-94064800D03*
D14*
X88732300Y-85414800D03*
D15*
X92112300Y-85414800D03*
D16*
X91742300Y-86764800D03*
X91742300Y-87614800D03*
X91742300Y-88464800D03*
X91742300Y-89314800D03*
X91742300Y-90164800D03*
X91742300Y-91014800D03*
X91742300Y-91864800D03*
X91742300Y-92714800D03*
X93092300Y-92714800D03*
X93092300Y-91864800D03*
X93092300Y-91014800D03*
X93092300Y-90164800D03*
X93092300Y-89314800D03*
X93092300Y-88464800D03*
X93092300Y-87614800D03*
X93092300Y-86764800D03*
%TD*%
D12*
%TO.C,Q1*%
X129500000Y-115000000D03*
X128230000Y-115000000D03*
D11*
X126960000Y-115000000D03*
%TD*%
D17*
%TO.C,J8*%
X99000000Y-63000000D03*
D18*
X99000000Y-65540000D03*
X99000000Y-68080000D03*
X99000000Y-70620000D03*
X99000000Y-73160000D03*
X99000000Y-75700000D03*
X99000000Y-78240000D03*
X99000000Y-80780000D03*
X99000000Y-83320000D03*
X99000000Y-85860000D03*
X99000000Y-88400000D03*
X99000000Y-90940000D03*
X99000000Y-93480000D03*
X99000000Y-96020000D03*
X99000000Y-98560000D03*
X99000000Y-101100000D03*
%TD*%
D17*
%TO.C,J9*%
X121860000Y-63000000D03*
D18*
X121860000Y-65540000D03*
X121860000Y-68080000D03*
X121860000Y-70620000D03*
X121860000Y-73160000D03*
X121860000Y-75700000D03*
X121860000Y-78240000D03*
X121860000Y-80780000D03*
X121860000Y-83320000D03*
X121860000Y-85860000D03*
X121860000Y-88400000D03*
X121860000Y-90940000D03*
X121860000Y-93480000D03*
X121860000Y-96020000D03*
X121860000Y-98560000D03*
X121860000Y-101100000D03*
%TD*%
D13*
%TO.C,R8*%
X116000000Y-105000000D03*
X105840000Y-105000000D03*
%TD*%
%TO.C,R7*%
X105840000Y-87500000D03*
X116000000Y-87500000D03*
%TD*%
%TO.C,R3*%
X105840000Y-101500000D03*
X116000000Y-101500000D03*
%TD*%
%TO.C,R2*%
X105840000Y-98000000D03*
X116000000Y-98000000D03*
%TD*%
%TO.C,R1*%
X105840000Y-94500000D03*
X116000000Y-94500000D03*
%TD*%
D10*
%TO.C,REF\u002A1*%
X93500000Y-73500000D03*
%TD*%
M02*
