%TF.GenerationSoftware,KiCad,Pcbnew,9.0.7*%
%TF.CreationDate,2026-04-13T16:05:15+02:00*%
%TF.ProjectId,zbox,6d757369-6362-46f7-982e-6b696361645f,rev?*%
%TF.SameCoordinates,Original*%
%TF.FileFunction,Copper,L2,Bot*%
%TF.FilePolarity,Positive*%
%FSLAX46Y46*%
G04 Gerber Fmt 4.6, Leading zero omitted, Abs format (unit mm)*
G04 Created by KiCad (PCBNEW 9.0.7) date 2026-04-13 16:05:15*
%MOMM*%
%LPD*%
G01*
G04 APERTURE LIST*
%TA.AperFunction,ComponentPad*%
%ADD10R,1.050000X1.500000*%
%TD*%
%TA.AperFunction,ComponentPad*%
%ADD11O,1.050000X1.500000*%
%TD*%
%TA.AperFunction,ComponentPad*%
%ADD12C,1.600000*%
%TD*%
%TA.AperFunction,ComponentPad*%
%ADD13O,1.700000X0.900000*%
%TD*%
%TA.AperFunction,ComponentPad*%
%ADD14O,2.400000X0.900000*%
%TD*%
%TA.AperFunction,ComponentPad*%
%ADD15C,0.700000*%
%TD*%
%TA.AperFunction,ComponentPad*%
%ADD16R,1.700000X1.700000*%
%TD*%
%TA.AperFunction,ComponentPad*%
%ADD17C,1.700000*%
%TD*%
%TA.AperFunction,ViaPad*%
%ADD18C,0.600000*%
%TD*%
%TA.AperFunction,Conductor*%
%ADD19C,0.200000*%
%TD*%
%TA.AperFunction,Conductor*%
%ADD20C,0.500000*%
%TD*%
G04 APERTURE END LIST*
D10*
%TO.P,Q2,1,D*%
%TO.N,Net-(Q2-D)*%
X135500000Y-116000000D03*
D11*
%TO.P,Q2,2,G*%
%TO.N,/LED_EN*%
X136770000Y-116000000D03*
%TO.P,Q2,3,S*%
%TO.N,/BAT*%
X138040000Y-116000000D03*
%TD*%
D12*
%TO.P,R6,2*%
%TO.N,/JBL_STATUS*%
X116000000Y-91000000D03*
%TO.P,R6,1*%
%TO.N,/JBL_LINE*%
X105840000Y-91000000D03*
%TD*%
D13*
%TO.P,J1,S1,SHIELD*%
%TO.N,GND*%
X88732300Y-94064800D03*
D14*
X92112300Y-94064800D03*
D13*
X88732300Y-85414800D03*
D14*
X92112300Y-85414800D03*
D15*
%TO.P,J1,B12,GND*%
X91742300Y-86764800D03*
%TO.P,J1,B9,VBUS*%
%TO.N,VBUS*%
X91742300Y-87614800D03*
%TO.P,J1,B8*%
%TO.N,N/C*%
X91742300Y-88464800D03*
%TO.P,J1,B7,D-*%
%TO.N,unconnected-(J1-D--PadB7)*%
X91742300Y-89314800D03*
%TO.P,J1,B6,D+*%
%TO.N,unconnected-(J1-D+-PadB6)*%
X91742300Y-90164800D03*
%TO.P,J1,B5,CC2*%
%TO.N,Net-(J1-CC2)*%
X91742300Y-91014800D03*
%TO.P,J1,B4,VBUS*%
%TO.N,VBUS*%
X91742300Y-91864800D03*
%TO.P,J1,B1,GND*%
%TO.N,GND*%
X91742300Y-92714800D03*
%TO.P,J1,A12,GND*%
X93092300Y-92714800D03*
%TO.P,J1,A9,VBUS*%
%TO.N,VBUS*%
X93092300Y-91864800D03*
%TO.P,J1,A8*%
%TO.N,N/C*%
X93092300Y-91014800D03*
%TO.P,J1,A7,D-*%
%TO.N,unconnected-(J1-D--PadA7)*%
X93092300Y-90164800D03*
%TO.P,J1,A6,D+*%
%TO.N,unconnected-(J1-D+-PadA6)*%
X93092300Y-89314800D03*
%TO.P,J1,A5,CC1*%
%TO.N,Net-(J1-CC1)*%
X93092300Y-88464800D03*
%TO.P,J1,A4,VBUS*%
%TO.N,VBUS*%
X93092300Y-87614800D03*
%TO.P,J1,A1,GND*%
%TO.N,GND*%
X93092300Y-86764800D03*
%TD*%
D11*
%TO.P,Q1,3,E*%
%TO.N,GND*%
X129500000Y-115000000D03*
%TO.P,Q1,2,B*%
%TO.N,Net-(Q1-B)*%
X128230000Y-115000000D03*
D10*
%TO.P,Q1,1,C*%
%TO.N,/JBL_BTN_P*%
X126960000Y-115000000D03*
%TD*%
D16*
%TO.P,J8,1,Pin_1*%
%TO.N,+3V3*%
X99000000Y-63000000D03*
D17*
%TO.P,J8,2,Pin_2*%
%TO.N,unconnected-(J8-Pin_2-Pad2)*%
X99000000Y-65540000D03*
%TO.P,J8,3,Pin_3*%
%TO.N,unconnected-(J8-Pin_3-Pad3)*%
X99000000Y-68080000D03*
%TO.P,J8,4,Pin_4*%
%TO.N,unconnected-(J8-Pin_4-Pad4)*%
X99000000Y-70620000D03*
%TO.P,J8,5,Pin_5*%
%TO.N,/JBL_STATUS*%
X99000000Y-73160000D03*
%TO.P,J8,6,Pin_6*%
%TO.N,/BTN_A (VOL+)*%
X99000000Y-75700000D03*
%TO.P,J8,7,Pin_7*%
%TO.N,/BTN_B (VOL-)*%
X99000000Y-78240000D03*
%TO.P,J8,8,Pin_8*%
%TO.N,/BTN_C*%
X99000000Y-80780000D03*
%TO.P,J8,9,Pin_9*%
%TO.N,/BTN_D*%
X99000000Y-83320000D03*
%TO.P,J8,10,Pin_10*%
%TO.N,/LED_EN*%
X99000000Y-85860000D03*
%TO.P,J8,11,Pin_11*%
%TO.N,/LED_DIN*%
X99000000Y-88400000D03*
%TO.P,J8,12,Pin_12*%
%TO.N,/SPI_MOSI*%
X99000000Y-90940000D03*
%TO.P,J8,13,Pin_13*%
%TO.N,/JBL_PWR*%
X99000000Y-93480000D03*
%TO.P,J8,14,Pin_14*%
%TO.N,unconnected-(J8-Pin_14-Pad14)*%
X99000000Y-96020000D03*
%TO.P,J8,15,Pin_15*%
%TO.N,VBUS*%
X99000000Y-98560000D03*
%TO.P,J8,16,Pin_16*%
%TO.N,/BAT*%
X99000000Y-101100000D03*
%TD*%
D16*
%TO.P,J9,1,Pin_1*%
%TO.N,GND*%
X121860000Y-63000000D03*
D17*
%TO.P,J9,2,Pin_2*%
%TO.N,unconnected-(J9-Pin_2-Pad2)*%
X121860000Y-65540000D03*
%TO.P,J9,3,Pin_3*%
%TO.N,/SPI_SCK*%
X121860000Y-68080000D03*
%TO.P,J9,4,Pin_4*%
%TO.N,unconnected-(J9-Pin_4-Pad4)*%
X121860000Y-70620000D03*
%TO.P,J9,5,Pin_5*%
%TO.N,unconnected-(J9-Pin_5-Pad5)*%
X121860000Y-73160000D03*
%TO.P,J9,6,Pin_6*%
%TO.N,/SPI_MISO*%
X121860000Y-75700000D03*
%TO.P,J9,7,Pin_7*%
%TO.N,unconnected-(J9-Pin_7-Pad7)*%
X121860000Y-78240000D03*
%TO.P,J9,8,Pin_8*%
%TO.N,unconnected-(J9-Pin_8-Pad8)*%
X121860000Y-80780000D03*
%TO.P,J9,9,Pin_9*%
%TO.N,/SPI_SS*%
X121860000Y-83320000D03*
%TO.P,J9,10,Pin_10*%
%TO.N,unconnected-(J9-Pin_10-Pad10)*%
X121860000Y-85860000D03*
%TO.P,J9,11,Pin_11*%
%TO.N,unconnected-(J9-Pin_11-Pad11)*%
X121860000Y-88400000D03*
%TO.P,J9,12,Pin_12*%
%TO.N,unconnected-(J9-Pin_12-Pad12)*%
X121860000Y-90940000D03*
%TO.P,J9,13,Pin_13*%
%TO.N,unconnected-(J9-Pin_13-Pad13)*%
X121860000Y-93480000D03*
%TO.P,J9,14,Pin_14*%
%TO.N,unconnected-(J9-Pin_14-Pad14)*%
X121860000Y-96020000D03*
%TO.P,J9,15,Pin_15*%
%TO.N,unconnected-(J9-Pin_15-Pad15)*%
X121860000Y-98560000D03*
%TO.P,J9,16,Pin_16*%
%TO.N,GND*%
X121860000Y-101100000D03*
%TD*%
D12*
%TO.P,R8,1*%
%TO.N,/BAT*%
X116000000Y-105000000D03*
%TO.P,R8,2*%
%TO.N,/LED_EN*%
X105840000Y-105000000D03*
%TD*%
%TO.P,R7,1*%
%TO.N,/JBL_STATUS*%
X105840000Y-87500000D03*
%TO.P,R7,2*%
%TO.N,GND*%
X116000000Y-87500000D03*
%TD*%
%TO.P,R3,1*%
%TO.N,Net-(Q1-B)*%
X105840000Y-101500000D03*
%TO.P,R3,2*%
%TO.N,/JBL_PWR*%
X116000000Y-101500000D03*
%TD*%
%TO.P,R2,1*%
%TO.N,Net-(J1-CC2)*%
X105840000Y-98000000D03*
%TO.P,R2,2*%
%TO.N,GND*%
X116000000Y-98000000D03*
%TD*%
%TO.P,R1,1*%
%TO.N,Net-(J1-CC1)*%
X105840000Y-94500000D03*
%TO.P,R1,2*%
%TO.N,GND*%
X116000000Y-94500000D03*
%TD*%
D18*
%TO.N,Net-(Q1-B)*%
X105815000Y-117688500D03*
%TO.N,/+5V_LED*%
X138499000Y-86027000D03*
X117045500Y-85283500D03*
%TO.N,/JBL_BTN_P*%
X126641900Y-109540000D03*
%TO.N,/JBL_LINE*%
X128469900Y-77473200D03*
%TO.N,/LED_DIN*%
X108725000Y-88674500D03*
%TO.N,/JBL_STATUS*%
X100374400Y-87242500D03*
%TO.N,/JBL_PWR*%
X113891200Y-98763000D03*
%TO.N,/BTN_B (VOL-)*%
X132005000Y-65360500D03*
%TO.N,/BTN_C*%
X132097000Y-67702500D03*
%TO.N,/BTN_D*%
X134915000Y-73573500D03*
%TO.N,/BTN_A (VOL+)*%
X127282400Y-66578600D03*
%TO.N,/SPI_MISO*%
X117693200Y-74197400D03*
%TO.N,/SPI_MOSI*%
X118190900Y-91219500D03*
%TO.N,/SPI_SCK*%
X111635000Y-67691500D03*
%TO.N,/BAT*%
X130097500Y-102983500D03*
%TO.N,VBUS*%
X96714200Y-98056000D03*
%TD*%
D19*
%TO.N,Net-(Q1-B)*%
X126543200Y-117688500D02*
X128230000Y-116001700D01*
X105815000Y-117688500D02*
X126543200Y-117688500D01*
X128230000Y-115000000D02*
X128230000Y-116001700D01*
D20*
%TO.N,/+5V_LED*%
X137062000Y-84590000D02*
X138499000Y-86027000D01*
X117739000Y-84590000D02*
X137062000Y-84590000D01*
X117045500Y-85283500D02*
X117739000Y-84590000D01*
D19*
%TO.N,/JBL_BTN_P*%
X126960000Y-109858100D02*
X126641900Y-109540000D01*
X126960000Y-115000000D02*
X126960000Y-109858100D01*
%TO.N,/JBL_LINE*%
X126433100Y-79510000D02*
X128469900Y-77473200D01*
X107272800Y-79510000D02*
X126433100Y-79510000D01*
X99818300Y-86964500D02*
X107272800Y-79510000D01*
X99818300Y-87493000D02*
X99818300Y-86964500D01*
X103325300Y-91000000D02*
X99818300Y-87493000D01*
X105840000Y-91000000D02*
X103325300Y-91000000D01*
%TO.N,/LED_DIN*%
X108725000Y-89609700D02*
X108725000Y-88674500D01*
X106282900Y-92051800D02*
X108725000Y-89609700D01*
X103639300Y-92051800D02*
X106282900Y-92051800D01*
X99987500Y-88400000D02*
X103639300Y-92051800D01*
X99000000Y-88400000D02*
X99987500Y-88400000D01*
%TO.N,/JBL_STATUS*%
X105582500Y-87242500D02*
X105840000Y-87500000D01*
X100374400Y-87242500D02*
X105582500Y-87242500D01*
X112500000Y-87500000D02*
X105840000Y-87500000D01*
X116000000Y-91000000D02*
X112500000Y-87500000D01*
%TO.N,/JBL_PWR*%
X102894000Y-93480000D02*
X99000000Y-93480000D01*
X108177000Y-98763000D02*
X102894000Y-93480000D01*
X113891200Y-98763000D02*
X108177000Y-98763000D01*
%TO.N,/LED_EN*%
X108083000Y-107243000D02*
X105840000Y-105000000D01*
X129014700Y-107243000D02*
X108083000Y-107243000D01*
X136770000Y-114998300D02*
X129014700Y-107243000D01*
X136770000Y-116000000D02*
X136770000Y-114998300D01*
%TO.N,/BTN_B (VOL-)*%
X128015500Y-69350000D02*
X132005000Y-65360500D01*
X107890000Y-69350000D02*
X128015500Y-69350000D01*
X99000000Y-78240000D02*
X107890000Y-69350000D01*
%TO.N,/BTN_C*%
X127767700Y-72031800D02*
X132097000Y-67702500D01*
X107748200Y-72031800D02*
X127767700Y-72031800D01*
X99000000Y-80780000D02*
X107748200Y-72031800D01*
%TO.N,/BTN_D*%
X105458600Y-76861400D02*
X99000000Y-83320000D01*
X131627100Y-76861400D02*
X105458600Y-76861400D01*
X134915000Y-73573500D02*
X131627100Y-76861400D01*
%TO.N,/BTN_A (VOL+)*%
X108014000Y-66686000D02*
X99000000Y-75700000D01*
X127175000Y-66686000D02*
X108014000Y-66686000D01*
X127282400Y-66578600D02*
X127175000Y-66686000D01*
%TO.N,/SPI_MISO*%
X120357400Y-74197400D02*
X117693200Y-74197400D01*
X121860000Y-75700000D02*
X120357400Y-74197400D01*
%TO.N,/SPI_MOSI*%
X117006900Y-92403500D02*
X118190900Y-91219500D01*
X103493700Y-92403500D02*
X117006900Y-92403500D01*
X102030200Y-90940000D02*
X103493700Y-92403500D01*
X99000000Y-90940000D02*
X102030200Y-90940000D01*
%TO.N,/SPI_SCK*%
X121471500Y-67691500D02*
X121860000Y-68080000D01*
X111635000Y-67691500D02*
X121471500Y-67691500D01*
D20*
%TO.N,/BAT*%
X118016500Y-102983500D02*
X116000000Y-105000000D01*
X130097500Y-102983500D02*
X118016500Y-102983500D01*
X114250000Y-103250000D02*
X116000000Y-105000000D01*
X101150000Y-103250000D02*
X114250000Y-103250000D01*
X99000000Y-101100000D02*
X101150000Y-103250000D01*
D19*
%TO.N,Net-(J1-CC1)*%
X105092900Y-94500000D02*
X105840000Y-94500000D01*
X102804400Y-92211500D02*
X105092900Y-94500000D01*
X97029900Y-92211500D02*
X102804400Y-92211500D01*
X93283200Y-88464800D02*
X97029900Y-92211500D01*
X93092300Y-88464800D02*
X93283200Y-88464800D01*
%TO.N,Net-(J1-CC2)*%
X102591500Y-94751500D02*
X105840000Y-98000000D01*
X94541400Y-94751500D02*
X102591500Y-94751500D01*
X93153000Y-93363100D02*
X94541400Y-94751500D01*
X92821800Y-93363100D02*
X93153000Y-93363100D01*
X92344000Y-92885300D02*
X92821800Y-93363100D01*
X92344000Y-91533500D02*
X92344000Y-92885300D01*
X91825300Y-91014800D02*
X92344000Y-91533500D01*
X91742300Y-91014800D02*
X91825300Y-91014800D01*
D20*
%TO.N,GND*%
X88732300Y-85414800D02*
X92112300Y-85414800D01*
X93092300Y-86764800D02*
X91742300Y-86764800D01*
X119100000Y-101100000D02*
X121860000Y-101100000D01*
X116000000Y-98000000D02*
X119100000Y-101100000D01*
X88732300Y-94064800D02*
X92112300Y-94064800D01*
X114535300Y-99464700D02*
X116000000Y-98000000D01*
X105502100Y-99464700D02*
X114535300Y-99464700D01*
X103327400Y-97290000D02*
X105502100Y-99464700D01*
X95337500Y-97290000D02*
X103327400Y-97290000D01*
X92112300Y-94064800D02*
X95337500Y-97290000D01*
%TO.N,VBUS*%
X93092300Y-87614800D02*
X91742300Y-87614800D01*
X97218200Y-98560000D02*
X96714200Y-98056000D01*
X99000000Y-98560000D02*
X97218200Y-98560000D01*
X96714200Y-98056000D02*
X96714200Y-98560000D01*
X96714200Y-98560000D02*
X96714200Y-98056000D01*
%TD*%
M02*
