M48
; DRILL file {KiCad 9.0.7} date 2026-04-13T16:05:16+0200
; FORMAT={-:-/ absolute / metric / decimal}
; #@! TF.CreationDate,2026-04-13T16:05:16+02:00
; #@! TF.GenerationSoftware,Kicad,Pcbnew,9.0.7
; #@! TF.FileFunction,Plated,1,2,PTH
FMAT,2
METRIC
; #@! TA.AperFunction,Plated,PTH,ViaDrill
T1C0.300
; #@! TA.AperFunction,Plated,PTH,ComponentDrill
T2C0.400
; #@! TA.AperFunction,Plated,PTH,ComponentDrill
T3C0.600
; #@! TA.AperFunction,Plated,PTH,ComponentDrill
T4C0.750
; #@! TA.AperFunction,Plated,PTH,ComponentDrill
T5C0.800
; #@! TA.AperFunction,Plated,PTH,ComponentDrill
T6C1.000
%
G90
G05
T1
X96.714Y-98.056
X100.374Y-87.242
X105.815Y-117.688
X108.725Y-88.674
X111.635Y-67.691
X113.891Y-98.763
X117.045Y-85.283
X117.693Y-74.197
X118.191Y-91.219
X126.642Y-109.54
X127.282Y-66.579
X128.47Y-77.473
X130.097Y-102.983
X132.005Y-65.361
X132.097Y-67.703
X134.915Y-73.573
X138.499Y-86.027
T2
X91.742Y-86.765
X91.742Y-87.615
X91.742Y-88.465
X91.742Y-89.315
X91.742Y-90.165
X91.742Y-91.015
X91.742Y-91.865
X91.742Y-92.715
X93.092Y-86.765
X93.092Y-87.615
X93.092Y-88.465
X93.092Y-89.315
X93.092Y-90.165
X93.092Y-91.015
X93.092Y-91.865
X93.092Y-92.715
T4
X126.96Y-115.0
X128.23Y-115.0
X129.5Y-115.0
X135.5Y-116.0
X136.77Y-116.0
X138.04Y-116.0
T5
X105.84Y-87.5
X105.84Y-91.0
X105.84Y-94.5
X105.84Y-98.0
X105.84Y-101.5
X105.84Y-105.0
X116.0Y-87.5
X116.0Y-91.0
X116.0Y-94.5
X116.0Y-98.0
X116.0Y-101.5
X116.0Y-105.0
T6
X99.0Y-63.0
X99.0Y-65.54
X99.0Y-68.08
X99.0Y-70.62
X99.0Y-73.16
X99.0Y-75.7
X99.0Y-78.24
X99.0Y-80.78
X99.0Y-83.32
X99.0Y-85.86
X99.0Y-88.4
X99.0Y-90.94
X99.0Y-93.48
X99.0Y-96.02
X99.0Y-98.56
X99.0Y-101.1
X121.86Y-63.0
X121.86Y-65.54
X121.86Y-68.08
X121.86Y-70.62
X121.86Y-73.16
X121.86Y-75.7
X121.86Y-78.24
X121.86Y-80.78
X121.86Y-83.32
X121.86Y-85.86
X121.86Y-88.4
X121.86Y-90.94
X121.86Y-93.48
X121.86Y-96.02
X121.86Y-98.56
X121.86Y-101.1
T3
G00X89.132Y-85.415
M15
G01X88.332Y-85.415
M16
G05
G00X89.132Y-94.065
M15
G01X88.332Y-94.065
M16
G05
G00X92.862Y-85.415
M15
G01X91.362Y-85.415
M16
G05
G00X92.862Y-94.065
M15
G01X91.362Y-94.065
M16
G05
M30
